<?xml version="1.0" standalone="no"?><!DOCTYPE svg PUBLIC "-//W3C//DTD SVG 1.1//EN" "http://www.w3.org/Graphics/SVG/1.1/DTD/svg11.dtd"><svg t="1747534894011" class="icon" viewBox="0 0 1025 1024" version="1.1" xmlns="http://www.w3.org/2000/svg" p-id="2521" xmlns:xlink="http://www.w3.org/1999/xlink" width="200.1953125" height="200"><path d="M121.360516 173.062006c-14.66332-14.66332-14.66332-38.422522 0-53.085842 14.657314-14.655812 38.428528-14.655812 53.079836 0l52.55132 52.55132c14.661818 14.66332 14.661818 38.434534 0 53.085842a37.410534 37.410534 0 0 1-26.539918 10.996739 37.424047 37.424047 0 0 1-26.545924-10.996739zM302.575484 140.950147c3.648563 17.753337 19.278827 29.98278 36.721361 29.98278a37.566686 37.566686 0 0 0 7.606428-0.786769c20.310334-4.181584 33.373091-24.02346 29.196011-44.333794l-13.137829-63.812317c-4.181584-20.299824-24.02346-33.367085-44.333795-29.190006-20.30583 4.174076-33.373091 24.027965-29.190006 44.327789zM61.507566 362.908903l63.806311 13.13783a37.61173 37.61173 0 0 0 7.612434 0.780763c17.438029 0 33.068293-12.223437 36.727366-29.970769 4.181584-20.311836-8.891683-40.158217-29.190005-44.341302l-63.812317-13.13783C56.339519 285.196012 36.493138 298.269279 32.311554 318.575109c-4.183085 20.304328 8.890182 40.158217 29.196012 44.333794z m790.461935 434.599414c-14.661818-14.66332-38.433032-14.66332-53.08434 0-14.655812 14.661818-14.661818 38.422522 0 53.08434l52.55132 52.545314a37.410534 37.410534 0 0 0 26.539918 10.996739 37.424047 37.424047 0 0 0 26.545924-10.996739c14.655812-14.657314 14.655812-38.428528 0-53.079836z m110.528939-135.972786l-63.812317-13.13783c-20.310334-4.174076-40.164223 8.893185-44.3398 29.197513-4.181584 20.30583 8.891683 40.152211 29.202017 44.32929l63.800305 13.13783c2.563003 0.527015 5.103484 0.785267 7.612434 0.785267 17.444035 0 33.074299-12.229443 36.727367-29.976774 4.183085-20.310334-8.890182-40.152211-29.188505-44.333795zM721.983062 884.048328c-4.183085-20.310334-24.029466-33.371589-44.341302-29.203519-20.299824 4.189091-33.371589 24.030968-29.190006 44.341302l13.13783 63.812317c3.659073 17.747331 19.278827 29.970768 36.725865 29.970768 2.511953 0 5.056938-0.252246 7.607929-0.780762 20.30583-4.174076 33.377595-24.027965 29.197513-44.327789z m109.072516-371.54834c0 175.929806-143.125771 319.055578-319.055578 319.055578-60.434018 0-116.991249-16.891496-165.221349-46.200117L273.871953 969.25654a37.542663 37.542663 0 0 1-34.873056 23.708152c-1.114088 0-2.246194-0.054053-3.372293-0.159155a37.530651 37.530651 0 0 1-33.449666-29.984282c-15.284927-76.046264-60.422006-120.807977-142.052222-140.849548a37.544164 37.544164 0 0 1-28.49783-33.918123 37.547167 37.547167 0 0 1 23.66461-37.446569l184.006193-72.640939c-29.401713-48.275144-46.351765-104.932974-46.351765-165.466088 0-175.929806 143.131777-319.055578 319.055577-319.055577 58.539167 0 115.31261 16.110733 164.485631 45.683612L750.19261 55.584282A37.514135 37.514135 0 0 1 787.514557 32.116364a37.544164 37.544164 0 0 1 33.882088 28.188527c20.570088 80.727836 66.687625 127.295812 140.998194 142.38705a37.536657 37.536657 0 1 1 5.771636 71.912728l-231.420997 87.21417a37.527648 37.527648 0 0 1-41.429959-10.340599c-46.357771-52.726991-113.173021-82.968023-183.314018-82.968023-134.528375 0-243.982264 109.459894-243.982263 243.98827S377.471625 756.480751 512 756.480751a244.078358 244.078358 0 0 0 52.851613-5.777642c-120.294475-0.486475-218.012903-98.162862-218.012903-218.157044 0-0.018018 0.006006-0.030029 0.006006-0.048047 0-0.006006-0.006006-0.030029-0.006006-0.04054 0-94.826604 77.648328-171.977947 173.096539-171.977947 78.417079 0 142.211378 62.86339 142.211379 140.131847 0 51.207507-43.835308 94.467754-95.718476 94.467754-20.733748 0-37.536657-16.802909-37.536656-37.536657s16.802909-37.536657 37.536656-37.536657c10.22949 0 20.645161-9.78956 20.645162-19.395941 0-35.876035-30.117912-65.061537-67.138065-65.061537-54.04678 0-98.023226 43.477959-98.023226 96.909138v0.088587c0 78.902053 64.52251 143.089736 143.84047 143.089736 92.955777 0 173.134076-69.231109 186.494123-161.038264a37.236364 37.236364 0 0 1 6.522369-16.257877c5.588457-13.706886 19.031085-23.37783 34.755942-23.37783 20.727742 0 37.530651 16.802909 37.530651 37.536657z m-90.087977-232.49905l111.947824-42.192703a227.383554 227.383554 0 0 1-34.234932-28.275613c-12.221935-12.294006-23.161619-26.118006-32.786018-41.401431zM283.52488 741.213842l-114.77959 45.308246c14.843496 9.402182 28.292129 20.076106 40.287343 31.994745a225.85356 225.85356 0 0 1 29.506816 36.158311z m0 0" p-id="2522" fill="#004883"></path></svg>