<svg width="43" height="43" viewBox="0 0 43 43" fill="none" xmlns="http://www.w3.org/2000/svg">
<path d="M22.9666 22.776L40.8349 5.01622C41.7653 4.09146 41.7638 2.59367 40.8315 1.67081C39.8992 0.747942 38.3892 0.749476 37.4588 1.67423L19.5905 19.434C18.6601 20.3588 18.6617 21.8566 19.5939 22.7794C20.5262 23.7023 22.0362 23.7008 22.9666 22.776Z" fill="#666668"/>
<path d="M1.68849 5.05541L19.5932 22.7792C20.5255 23.7021 22.0355 23.7005 22.9659 22.7758C23.8963 21.8511 23.8947 20.3533 22.9625 19.4304L5.05773 1.70663C4.12546 0.78378 2.61548 0.785316 1.68509 1.71006C0.754697 2.6348 0.756219 4.13257 1.68849 5.05541Z" fill="#666668"/>
<path d="M19.5529 19.6747L1.68465 37.4345C0.754242 38.3592 0.755765 39.857 1.68805 40.7799C2.62033 41.7027 4.13034 41.7012 5.06074 40.7765L22.929 23.0167C23.8594 22.0919 23.8579 20.5941 22.9256 19.6712C21.9933 18.7484 20.4833 18.7499 19.5529 19.6747Z" fill="#666668"/>
<path d="M40.831 37.3953L22.9263 19.6715C21.994 18.7486 20.4841 18.7501 19.5537 19.6749C18.6233 20.5996 18.6248 22.0974 19.5571 23.0202L37.4618 40.7441C38.3941 41.6669 39.9041 41.6654 40.8344 40.7406C41.7648 39.8159 41.7633 38.3181 40.831 37.3953Z" fill="#666668"/>
</svg>
